<?xml version="1.0" encoding="utf-8"?>
<svg xmlns="http://www.w3.org/2000/svg" xmlns:xlink="http://www.w3.org/1999/xlink" style="margin: auto; background: rgb(255, 255, 255); display: block; shape-rendering: auto;" width="200px" height="200px" viewBox="0 0 100 100" preserveAspectRatio="xMidYMid">
<g transform="rotate(0 50 50)">
  <rect x="24.5" y="11.5" rx="0.51" ry="0.5" width="51" height="1" fill="#353535">
    <animate attributeName="opacity" values="1;0" keyTimes="0;1" dur="1.3513513513513513s" begin="-1.3325825825825826s" repeatCount="indefinite"></animate>
  </rect>
</g><g transform="rotate(5 50 50)">
  <rect x="24.5" y="11.5" rx="0.51" ry="0.5" width="51" height="1" fill="#666666">
    <animate attributeName="opacity" values="1;0" keyTimes="0;1" dur="1.3513513513513513s" begin="-1.3138138138138138s" repeatCount="indefinite"></animate>
  </rect>
</g><g transform="rotate(10 50 50)">
  <rect x="24.5" y="11.5" rx="0.51" ry="0.5" width="51" height="1" fill="#9b9b9b">
    <animate attributeName="opacity" values="1;0" keyTimes="0;1" dur="1.3513513513513513s" begin="-1.295045045045045s" repeatCount="indefinite"></animate>
  </rect>
</g><g transform="rotate(15 50 50)">
  <rect x="24.5" y="11.5" rx="0.51" ry="0.5" width="51" height="1" fill="#d4d4d4">
    <animate attributeName="opacity" values="1;0" keyTimes="0;1" dur="1.3513513513513513s" begin="-1.2762762762762763s" repeatCount="indefinite"></animate>
  </rect>
</g><g transform="rotate(20 50 50)">
  <rect x="24.5" y="11.5" rx="0.51" ry="0.5" width="51" height="1" fill="#ffffff">
    <animate attributeName="opacity" values="1;0" keyTimes="0;1" dur="1.3513513513513513s" begin="-1.2575075075075075s" repeatCount="indefinite"></animate>
  </rect>
</g><g transform="rotate(25 50 50)">
  <rect x="24.5" y="11.5" rx="0.51" ry="0.5" width="51" height="1" fill="#353535">
    <animate attributeName="opacity" values="1;0" keyTimes="0;1" dur="1.3513513513513513s" begin="-1.2387387387387387s" repeatCount="indefinite"></animate>
  </rect>
</g><g transform="rotate(30 50 50)">
  <rect x="24.5" y="11.5" rx="0.51" ry="0.5" width="51" height="1" fill="#666666">
    <animate attributeName="opacity" values="1;0" keyTimes="0;1" dur="1.3513513513513513s" begin="-1.21996996996997s" repeatCount="indefinite"></animate>
  </rect>
</g><g transform="rotate(35 50 50)">
  <rect x="24.5" y="11.5" rx="0.51" ry="0.5" width="51" height="1" fill="#9b9b9b">
    <animate attributeName="opacity" values="1;0" keyTimes="0;1" dur="1.3513513513513513s" begin="-1.2012012012012012s" repeatCount="indefinite"></animate>
  </rect>
</g><g transform="rotate(40 50 50)">
  <rect x="24.5" y="11.5" rx="0.51" ry="0.5" width="51" height="1" fill="#d4d4d4">
    <animate attributeName="opacity" values="1;0" keyTimes="0;1" dur="1.3513513513513513s" begin="-1.1824324324324325s" repeatCount="indefinite"></animate>
  </rect>
</g><g transform="rotate(45 50 50)">
  <rect x="24.5" y="11.5" rx="0.51" ry="0.5" width="51" height="1" fill="#ffffff">
    <animate attributeName="opacity" values="1;0" keyTimes="0;1" dur="1.3513513513513513s" begin="-1.1636636636636637s" repeatCount="indefinite"></animate>
  </rect>
</g><g transform="rotate(50 50 50)">
  <rect x="24.5" y="11.5" rx="0.51" ry="0.5" width="51" height="1" fill="#353535">
    <animate attributeName="opacity" values="1;0" keyTimes="0;1" dur="1.3513513513513513s" begin="-1.144894894894895s" repeatCount="indefinite"></animate>
  </rect>
</g><g transform="rotate(55 50 50)">
  <rect x="24.5" y="11.5" rx="0.51" ry="0.5" width="51" height="1" fill="#666666">
    <animate attributeName="opacity" values="1;0" keyTimes="0;1" dur="1.3513513513513513s" begin="-1.1261261261261262s" repeatCount="indefinite"></animate>
  </rect>
</g><g transform="rotate(60 50 50)">
  <rect x="24.5" y="11.5" rx="0.51" ry="0.5" width="51" height="1" fill="#9b9b9b">
    <animate attributeName="opacity" values="1;0" keyTimes="0;1" dur="1.3513513513513513s" begin="-1.1073573573573574s" repeatCount="indefinite"></animate>
  </rect>
</g><g transform="rotate(65 50 50)">
  <rect x="24.5" y="11.5" rx="0.51" ry="0.5" width="51" height="1" fill="#d4d4d4">
    <animate attributeName="opacity" values="1;0" keyTimes="0;1" dur="1.3513513513513513s" begin="-1.0885885885885886s" repeatCount="indefinite"></animate>
  </rect>
</g><g transform="rotate(70 50 50)">
  <rect x="24.5" y="11.5" rx="0.51" ry="0.5" width="51" height="1" fill="#ffffff">
    <animate attributeName="opacity" values="1;0" keyTimes="0;1" dur="1.3513513513513513s" begin="-1.0698198198198199s" repeatCount="indefinite"></animate>
  </rect>
</g><g transform="rotate(75 50 50)">
  <rect x="24.5" y="11.5" rx="0.51" ry="0.5" width="51" height="1" fill="#353535">
    <animate attributeName="opacity" values="1;0" keyTimes="0;1" dur="1.3513513513513513s" begin="-1.0510510510510511s" repeatCount="indefinite"></animate>
  </rect>
</g><g transform="rotate(80 50 50)">
  <rect x="24.5" y="11.5" rx="0.51" ry="0.5" width="51" height="1" fill="#666666">
    <animate attributeName="opacity" values="1;0" keyTimes="0;1" dur="1.3513513513513513s" begin="-1.0322822822822824s" repeatCount="indefinite"></animate>
  </rect>
</g><g transform="rotate(85 50 50)">
  <rect x="24.5" y="11.5" rx="0.51" ry="0.5" width="51" height="1" fill="#9b9b9b">
    <animate attributeName="opacity" values="1;0" keyTimes="0;1" dur="1.3513513513513513s" begin="-1.0135135135135136s" repeatCount="indefinite"></animate>
  </rect>
</g><g transform="rotate(90 50 50)">
  <rect x="24.5" y="11.5" rx="0.51" ry="0.5" width="51" height="1" fill="#d4d4d4">
    <animate attributeName="opacity" values="1;0" keyTimes="0;1" dur="1.3513513513513513s" begin="-0.9947447447447447s" repeatCount="indefinite"></animate>
  </rect>
</g><g transform="rotate(95 50 50)">
  <rect x="24.5" y="11.5" rx="0.51" ry="0.5" width="51" height="1" fill="#ffffff">
    <animate attributeName="opacity" values="1;0" keyTimes="0;1" dur="1.3513513513513513s" begin="-0.975975975975976s" repeatCount="indefinite"></animate>
  </rect>
</g><g transform="rotate(100 50 50)">
  <rect x="24.5" y="11.5" rx="0.51" ry="0.5" width="51" height="1" fill="#353535">
    <animate attributeName="opacity" values="1;0" keyTimes="0;1" dur="1.3513513513513513s" begin="-0.9572072072072072s" repeatCount="indefinite"></animate>
  </rect>
</g><g transform="rotate(105 50 50)">
  <rect x="24.5" y="11.5" rx="0.51" ry="0.5" width="51" height="1" fill="#666666">
    <animate attributeName="opacity" values="1;0" keyTimes="0;1" dur="1.3513513513513513s" begin="-0.9384384384384384s" repeatCount="indefinite"></animate>
  </rect>
</g><g transform="rotate(110 50 50)">
  <rect x="24.5" y="11.5" rx="0.51" ry="0.5" width="51" height="1" fill="#9b9b9b">
    <animate attributeName="opacity" values="1;0" keyTimes="0;1" dur="1.3513513513513513s" begin="-0.9196696696696697s" repeatCount="indefinite"></animate>
  </rect>
</g><g transform="rotate(115 50 50)">
  <rect x="24.5" y="11.5" rx="0.51" ry="0.5" width="51" height="1" fill="#d4d4d4">
    <animate attributeName="opacity" values="1;0" keyTimes="0;1" dur="1.3513513513513513s" begin="-0.9009009009009009s" repeatCount="indefinite"></animate>
  </rect>
</g><g transform="rotate(120 50 50)">
  <rect x="24.5" y="11.5" rx="0.51" ry="0.5" width="51" height="1" fill="#ffffff">
    <animate attributeName="opacity" values="1;0" keyTimes="0;1" dur="1.3513513513513513s" begin="-0.8821321321321322s" repeatCount="indefinite"></animate>
  </rect>
</g><g transform="rotate(125 50 50)">
  <rect x="24.5" y="11.5" rx="0.51" ry="0.5" width="51" height="1" fill="#353535">
    <animate attributeName="opacity" values="1;0" keyTimes="0;1" dur="1.3513513513513513s" begin="-0.8633633633633634s" repeatCount="indefinite"></animate>
  </rect>
</g><g transform="rotate(130 50 50)">
  <rect x="24.5" y="11.5" rx="0.51" ry="0.5" width="51" height="1" fill="#666666">
    <animate attributeName="opacity" values="1;0" keyTimes="0;1" dur="1.3513513513513513s" begin="-0.8445945945945946s" repeatCount="indefinite"></animate>
  </rect>
</g><g transform="rotate(135 50 50)">
  <rect x="24.5" y="11.5" rx="0.51" ry="0.5" width="51" height="1" fill="#9b9b9b">
    <animate attributeName="opacity" values="1;0" keyTimes="0;1" dur="1.3513513513513513s" begin="-0.8258258258258258s" repeatCount="indefinite"></animate>
  </rect>
</g><g transform="rotate(140 50 50)">
  <rect x="24.5" y="11.5" rx="0.51" ry="0.5" width="51" height="1" fill="#d4d4d4">
    <animate attributeName="opacity" values="1;0" keyTimes="0;1" dur="1.3513513513513513s" begin="-0.807057057057057s" repeatCount="indefinite"></animate>
  </rect>
</g><g transform="rotate(145 50 50)">
  <rect x="24.5" y="11.5" rx="0.51" ry="0.5" width="51" height="1" fill="#ffffff">
    <animate attributeName="opacity" values="1;0" keyTimes="0;1" dur="1.3513513513513513s" begin="-0.7882882882882882s" repeatCount="indefinite"></animate>
  </rect>
</g><g transform="rotate(150 50 50)">
  <rect x="24.5" y="11.5" rx="0.51" ry="0.5" width="51" height="1" fill="#353535">
    <animate attributeName="opacity" values="1;0" keyTimes="0;1" dur="1.3513513513513513s" begin="-0.7695195195195195s" repeatCount="indefinite"></animate>
  </rect>
</g><g transform="rotate(155 50 50)">
  <rect x="24.5" y="11.5" rx="0.51" ry="0.5" width="51" height="1" fill="#666666">
    <animate attributeName="opacity" values="1;0" keyTimes="0;1" dur="1.3513513513513513s" begin="-0.7507507507507507s" repeatCount="indefinite"></animate>
  </rect>
</g><g transform="rotate(160 50 50)">
  <rect x="24.5" y="11.5" rx="0.51" ry="0.5" width="51" height="1" fill="#9b9b9b">
    <animate attributeName="opacity" values="1;0" keyTimes="0;1" dur="1.3513513513513513s" begin="-0.7319819819819819s" repeatCount="indefinite"></animate>
  </rect>
</g><g transform="rotate(165 50 50)">
  <rect x="24.5" y="11.5" rx="0.51" ry="0.5" width="51" height="1" fill="#d4d4d4">
    <animate attributeName="opacity" values="1;0" keyTimes="0;1" dur="1.3513513513513513s" begin="-0.7132132132132132s" repeatCount="indefinite"></animate>
  </rect>
</g><g transform="rotate(170 50 50)">
  <rect x="24.5" y="11.5" rx="0.51" ry="0.5" width="51" height="1" fill="#ffffff">
    <animate attributeName="opacity" values="1;0" keyTimes="0;1" dur="1.3513513513513513s" begin="-0.6944444444444444s" repeatCount="indefinite"></animate>
  </rect>
</g><g transform="rotate(175 50 50)">
  <rect x="24.5" y="11.5" rx="0.51" ry="0.5" width="51" height="1" fill="#353535">
    <animate attributeName="opacity" values="1;0" keyTimes="0;1" dur="1.3513513513513513s" begin="-0.6756756756756757s" repeatCount="indefinite"></animate>
  </rect>
</g><g transform="rotate(180 50 50)">
  <rect x="24.5" y="11.5" rx="0.51" ry="0.5" width="51" height="1" fill="#666666">
    <animate attributeName="opacity" values="1;0" keyTimes="0;1" dur="1.3513513513513513s" begin="-0.6569069069069069s" repeatCount="indefinite"></animate>
  </rect>
</g><g transform="rotate(185 50 50)">
  <rect x="24.5" y="11.5" rx="0.51" ry="0.5" width="51" height="1" fill="#9b9b9b">
    <animate attributeName="opacity" values="1;0" keyTimes="0;1" dur="1.3513513513513513s" begin="-0.6381381381381381s" repeatCount="indefinite"></animate>
  </rect>
</g><g transform="rotate(190 50 50)">
  <rect x="24.5" y="11.5" rx="0.51" ry="0.5" width="51" height="1" fill="#d4d4d4">
    <animate attributeName="opacity" values="1;0" keyTimes="0;1" dur="1.3513513513513513s" begin="-0.6193693693693694s" repeatCount="indefinite"></animate>
  </rect>
</g><g transform="rotate(195 50 50)">
  <rect x="24.5" y="11.5" rx="0.51" ry="0.5" width="51" height="1" fill="#ffffff">
    <animate attributeName="opacity" values="1;0" keyTimes="0;1" dur="1.3513513513513513s" begin="-0.6006006006006006s" repeatCount="indefinite"></animate>
  </rect>
</g><g transform="rotate(200 50 50)">
  <rect x="24.5" y="11.5" rx="0.51" ry="0.5" width="51" height="1" fill="#353535">
    <animate attributeName="opacity" values="1;0" keyTimes="0;1" dur="1.3513513513513513s" begin="-0.5818318318318318s" repeatCount="indefinite"></animate>
  </rect>
</g><g transform="rotate(205 50 50)">
  <rect x="24.5" y="11.5" rx="0.51" ry="0.5" width="51" height="1" fill="#666666">
    <animate attributeName="opacity" values="1;0" keyTimes="0;1" dur="1.3513513513513513s" begin="-0.5630630630630631s" repeatCount="indefinite"></animate>
  </rect>
</g><g transform="rotate(210 50 50)">
  <rect x="24.5" y="11.5" rx="0.51" ry="0.5" width="51" height="1" fill="#9b9b9b">
    <animate attributeName="opacity" values="1;0" keyTimes="0;1" dur="1.3513513513513513s" begin="-0.5442942942942943s" repeatCount="indefinite"></animate>
  </rect>
</g><g transform="rotate(215 50 50)">
  <rect x="24.5" y="11.5" rx="0.51" ry="0.5" width="51" height="1" fill="#d4d4d4">
    <animate attributeName="opacity" values="1;0" keyTimes="0;1" dur="1.3513513513513513s" begin="-0.5255255255255256s" repeatCount="indefinite"></animate>
  </rect>
</g><g transform="rotate(220 50 50)">
  <rect x="24.5" y="11.5" rx="0.51" ry="0.5" width="51" height="1" fill="#ffffff">
    <animate attributeName="opacity" values="1;0" keyTimes="0;1" dur="1.3513513513513513s" begin="-0.5067567567567568s" repeatCount="indefinite"></animate>
  </rect>
</g><g transform="rotate(225 50 50)">
  <rect x="24.5" y="11.5" rx="0.51" ry="0.5" width="51" height="1" fill="#353535">
    <animate attributeName="opacity" values="1;0" keyTimes="0;1" dur="1.3513513513513513s" begin="-0.487987987987988s" repeatCount="indefinite"></animate>
  </rect>
</g><g transform="rotate(230 50 50)">
  <rect x="24.5" y="11.5" rx="0.51" ry="0.5" width="51" height="1" fill="#666666">
    <animate attributeName="opacity" values="1;0" keyTimes="0;1" dur="1.3513513513513513s" begin="-0.4692192192192192s" repeatCount="indefinite"></animate>
  </rect>
</g><g transform="rotate(235 50 50)">
  <rect x="24.5" y="11.5" rx="0.51" ry="0.5" width="51" height="1" fill="#9b9b9b">
    <animate attributeName="opacity" values="1;0" keyTimes="0;1" dur="1.3513513513513513s" begin="-0.45045045045045046s" repeatCount="indefinite"></animate>
  </rect>
</g><g transform="rotate(240 50 50)">
  <rect x="24.5" y="11.5" rx="0.51" ry="0.5" width="51" height="1" fill="#d4d4d4">
    <animate attributeName="opacity" values="1;0" keyTimes="0;1" dur="1.3513513513513513s" begin="-0.4316816816816817s" repeatCount="indefinite"></animate>
  </rect>
</g><g transform="rotate(245 50 50)">
  <rect x="24.5" y="11.5" rx="0.51" ry="0.5" width="51" height="1" fill="#ffffff">
    <animate attributeName="opacity" values="1;0" keyTimes="0;1" dur="1.3513513513513513s" begin="-0.4129129129129129s" repeatCount="indefinite"></animate>
  </rect>
</g><g transform="rotate(250 50 50)">
  <rect x="24.5" y="11.5" rx="0.51" ry="0.5" width="51" height="1" fill="#353535">
    <animate attributeName="opacity" values="1;0" keyTimes="0;1" dur="1.3513513513513513s" begin="-0.3941441441441441s" repeatCount="indefinite"></animate>
  </rect>
</g><g transform="rotate(255 50 50)">
  <rect x="24.5" y="11.5" rx="0.51" ry="0.5" width="51" height="1" fill="#666666">
    <animate attributeName="opacity" values="1;0" keyTimes="0;1" dur="1.3513513513513513s" begin="-0.37537537537537535s" repeatCount="indefinite"></animate>
  </rect>
</g><g transform="rotate(260 50 50)">
  <rect x="24.5" y="11.5" rx="0.51" ry="0.5" width="51" height="1" fill="#9b9b9b">
    <animate attributeName="opacity" values="1;0" keyTimes="0;1" dur="1.3513513513513513s" begin="-0.3566066066066066s" repeatCount="indefinite"></animate>
  </rect>
</g><g transform="rotate(265 50 50)">
  <rect x="24.5" y="11.5" rx="0.51" ry="0.5" width="51" height="1" fill="#d4d4d4">
    <animate attributeName="opacity" values="1;0" keyTimes="0;1" dur="1.3513513513513513s" begin="-0.33783783783783783s" repeatCount="indefinite"></animate>
  </rect>
</g><g transform="rotate(270 50 50)">
  <rect x="24.5" y="11.5" rx="0.51" ry="0.5" width="51" height="1" fill="#ffffff">
    <animate attributeName="opacity" values="1;0" keyTimes="0;1" dur="1.3513513513513513s" begin="-0.31906906906906907s" repeatCount="indefinite"></animate>
  </rect>
</g><g transform="rotate(275 50 50)">
  <rect x="24.5" y="11.5" rx="0.51" ry="0.5" width="51" height="1" fill="#353535">
    <animate attributeName="opacity" values="1;0" keyTimes="0;1" dur="1.3513513513513513s" begin="-0.3003003003003003s" repeatCount="indefinite"></animate>
  </rect>
</g><g transform="rotate(280 50 50)">
  <rect x="24.5" y="11.5" rx="0.51" ry="0.5" width="51" height="1" fill="#666666">
    <animate attributeName="opacity" values="1;0" keyTimes="0;1" dur="1.3513513513513513s" begin="-0.28153153153153154s" repeatCount="indefinite"></animate>
  </rect>
</g><g transform="rotate(285 50 50)">
  <rect x="24.5" y="11.5" rx="0.51" ry="0.5" width="51" height="1" fill="#9b9b9b">
    <animate attributeName="opacity" values="1;0" keyTimes="0;1" dur="1.3513513513513513s" begin="-0.2627627627627628s" repeatCount="indefinite"></animate>
  </rect>
</g><g transform="rotate(290 50 50)">
  <rect x="24.5" y="11.5" rx="0.51" ry="0.5" width="51" height="1" fill="#d4d4d4">
    <animate attributeName="opacity" values="1;0" keyTimes="0;1" dur="1.3513513513513513s" begin="-0.243993993993994s" repeatCount="indefinite"></animate>
  </rect>
</g><g transform="rotate(295 50 50)">
  <rect x="24.5" y="11.5" rx="0.51" ry="0.5" width="51" height="1" fill="#ffffff">
    <animate attributeName="opacity" values="1;0" keyTimes="0;1" dur="1.3513513513513513s" begin="-0.22522522522522523s" repeatCount="indefinite"></animate>
  </rect>
</g><g transform="rotate(300 50 50)">
  <rect x="24.5" y="11.5" rx="0.51" ry="0.5" width="51" height="1" fill="#353535">
    <animate attributeName="opacity" values="1;0" keyTimes="0;1" dur="1.3513513513513513s" begin="-0.20645645645645644s" repeatCount="indefinite"></animate>
  </rect>
</g><g transform="rotate(305 50 50)">
  <rect x="24.5" y="11.5" rx="0.51" ry="0.5" width="51" height="1" fill="#666666">
    <animate attributeName="opacity" values="1;0" keyTimes="0;1" dur="1.3513513513513513s" begin="-0.18768768768768768s" repeatCount="indefinite"></animate>
  </rect>
</g><g transform="rotate(310 50 50)">
  <rect x="24.5" y="11.5" rx="0.51" ry="0.5" width="51" height="1" fill="#9b9b9b">
    <animate attributeName="opacity" values="1;0" keyTimes="0;1" dur="1.3513513513513513s" begin="-0.16891891891891891s" repeatCount="indefinite"></animate>
  </rect>
</g><g transform="rotate(315 50 50)">
  <rect x="24.5" y="11.5" rx="0.51" ry="0.5" width="51" height="1" fill="#d4d4d4">
    <animate attributeName="opacity" values="1;0" keyTimes="0;1" dur="1.3513513513513513s" begin="-0.15015015015015015s" repeatCount="indefinite"></animate>
  </rect>
</g><g transform="rotate(320 50 50)">
  <rect x="24.5" y="11.5" rx="0.51" ry="0.5" width="51" height="1" fill="#ffffff">
    <animate attributeName="opacity" values="1;0" keyTimes="0;1" dur="1.3513513513513513s" begin="-0.1313813813813814s" repeatCount="indefinite"></animate>
  </rect>
</g><g transform="rotate(325 50 50)">
  <rect x="24.5" y="11.5" rx="0.51" ry="0.5" width="51" height="1" fill="#353535">
    <animate attributeName="opacity" values="1;0" keyTimes="0;1" dur="1.3513513513513513s" begin="-0.11261261261261261s" repeatCount="indefinite"></animate>
  </rect>
</g><g transform="rotate(330 50 50)">
  <rect x="24.5" y="11.5" rx="0.51" ry="0.5" width="51" height="1" fill="#666666">
    <animate attributeName="opacity" values="1;0" keyTimes="0;1" dur="1.3513513513513513s" begin="-0.09384384384384384s" repeatCount="indefinite"></animate>
  </rect>
</g><g transform="rotate(335 50 50)">
  <rect x="24.5" y="11.5" rx="0.51" ry="0.5" width="51" height="1" fill="#9b9b9b">
    <animate attributeName="opacity" values="1;0" keyTimes="0;1" dur="1.3513513513513513s" begin="-0.07507507507507508s" repeatCount="indefinite"></animate>
  </rect>
</g><g transform="rotate(340 50 50)">
  <rect x="24.5" y="11.5" rx="0.51" ry="0.5" width="51" height="1" fill="#d4d4d4">
    <animate attributeName="opacity" values="1;0" keyTimes="0;1" dur="1.3513513513513513s" begin="-0.05630630630630631s" repeatCount="indefinite"></animate>
  </rect>
</g><g transform="rotate(345 50 50)">
  <rect x="24.5" y="11.5" rx="0.51" ry="0.5" width="51" height="1" fill="#ffffff">
    <animate attributeName="opacity" values="1;0" keyTimes="0;1" dur="1.3513513513513513s" begin="-0.03753753753753754s" repeatCount="indefinite"></animate>
  </rect>
</g><g transform="rotate(350 50 50)">
  <rect x="24.5" y="11.5" rx="0.51" ry="0.5" width="51" height="1" fill="#353535">
    <animate attributeName="opacity" values="1;0" keyTimes="0;1" dur="1.3513513513513513s" begin="-0.01876876876876877s" repeatCount="indefinite"></animate>
  </rect>
</g><g transform="rotate(355 50 50)">
  <rect x="24.5" y="11.5" rx="0.51" ry="0.5" width="51" height="1" fill="#666666">
    <animate attributeName="opacity" values="1;0" keyTimes="0;1" dur="1.3513513513513513s" begin="0s" repeatCount="indefinite"></animate>
  </rect>
</g>
<!-- [ldio] generated by https://loading.io/ --></svg>